<?xml version="1.0" encoding="utf-8" ?>
<svg baseProfile="full" height="450" version="1.1" width="800" xmlns="http://www.w3.org/2000/svg" xmlns:ev="http://www.w3.org/2001/xml-events" xmlns:xlink="http://www.w3.org/1999/xlink"><defs /><rect fill="rgb(0,128,255)" height="419.09874394377425" stroke="none" width="6.736842105263158" x="0.8421052631578947" y="30.901256056225748" /><text fill="rgb(64,0,0)" style="font-size:16px; font-family:Arial" x="0.8421052631578947" y="450.0">2.442</text><rect fill="rgb(0,128,255)" height="450.0" stroke="none" width="6.7368421052631575" x="9.263157894736842" y="0.0" /><text fill="rgb(64,0,0)" style="font-size:16px; font-family:Arial" x="9.263157894736842" y="450.0">2.622</text><rect fill="rgb(0,128,255)" height="390.89677185311103" stroke="none" width="6.736842105263154" x="17.68421052631579" y="59.103228146888966" /><text fill="rgb(64,0,0)" style="font-size:16px; font-family:Arial" x="17.68421052631579" y="450.0">2.278</text><rect fill="rgb(0,128,255)" height="344.1431735696084" stroke="none" width="6.736842105263161" x="26.105263157894736" y="105.8568264303916" /><text fill="rgb(64,0,0)" style="font-size:16px; font-family:Arial" x="26.105263157894736" y="450.0">2.005</text><rect fill="rgb(0,128,255)" height="325.3047697826047" stroke="none" width="6.736842105263165" x="34.526315789473685" y="124.6952302173953" /><text fill="rgb(64,0,0)" style="font-size:16px; font-family:Arial" x="34.526315789473685" y="450.0">1.896</text><rect fill="rgb(0,128,255)" height="342.4601195552313" stroke="none" width="6.736842105263165" x="42.94736842105263" y="107.5398804447687" /><text fill="rgb(64,0,0)" style="font-size:16px; font-family:Arial" x="42.94736842105263" y="450.0">1.995</text><rect fill="rgb(0,128,255)" height="341.5118462728235" stroke="none" width="6.736842105263165" x="51.368421052631575" y="108.4881537271765" /><text fill="rgb(64,0,0)" style="font-size:16px; font-family:Arial" x="51.368421052631575" y="450.0">1.990</text><rect fill="rgb(0,128,255)" height="320.36795318233834" stroke="none" width="6.7368421052631575" x="59.78947368421053" y="129.63204681766166" /><text fill="rgb(64,0,0)" style="font-size:16px; font-family:Arial" x="59.78947368421053" y="450.0">1.867</text><rect fill="rgb(0,128,255)" height="321.24538424324135" stroke="none" width="6.736842105263165" x="68.21052631578947" y="128.75461575675865" /><text fill="rgb(64,0,0)" style="font-size:16px; font-family:Arial" x="68.21052631578947" y="450.0">1.872</text><rect fill="rgb(0,128,255)" height="320.1103569460263" stroke="none" width="6.736842105263165" x="76.63157894736841" y="129.8896430539737" /><text fill="rgb(64,0,0)" style="font-size:16px; font-family:Arial" x="76.63157894736841" y="450.0">1.865</text><rect fill="rgb(0,128,255)" height="305.2003583350938" stroke="none" width="6.736842105263165" x="85.05263157894737" y="144.79964166490618" /><text fill="rgb(64,0,0)" style="font-size:16px; font-family:Arial" x="85.05263157894737" y="450.0">1.778</text><rect fill="rgb(0,128,255)" height="299.5155155516015" stroke="none" width="6.736842105263165" x="93.47368421052632" y="150.48448444839852" /><text fill="rgb(64,0,0)" style="font-size:16px; font-family:Arial" x="93.47368421052632" y="450.0">1.745</text><rect fill="rgb(0,128,255)" height="294.3895048064145" stroke="none" width="6.736842105263179" x="101.89473684210526" y="155.6104951935855" /><text fill="rgb(64,0,0)" style="font-size:16px; font-family:Arial" x="101.89473684210526" y="450.0">1.715</text><rect fill="rgb(0,128,255)" height="296.0116584276276" stroke="none" width="6.736842105263165" x="110.3157894736842" y="153.9883415723724" /><text fill="rgb(64,0,0)" style="font-size:16px; font-family:Arial" x="110.3157894736842" y="450.0">1.725</text><rect fill="rgb(0,128,255)" height="286.8273615351754" stroke="none" width="6.73684210526315" x="118.73684210526316" y="163.17263846482462" /><text fill="rgb(64,0,0)" style="font-size:16px; font-family:Arial" x="118.73684210526316" y="450.0">1.671</text><rect fill="rgb(0,128,255)" height="298.0025633661013" stroke="none" width="6.736842105263165" x="127.1578947368421" y="151.9974366338987" /><text fill="rgb(64,0,0)" style="font-size:16px; font-family:Arial" x="127.1578947368421" y="450.0">1.736</text><rect fill="rgb(0,128,255)" height="275.3895448765185" stroke="none" width="6.736842105263122" x="135.57894736842107" y="174.61045512348147" /><text fill="rgb(64,0,0)" style="font-size:16px; font-family:Arial" x="135.57894736842107" y="450.0">1.605</text><rect fill="rgb(0,128,255)" height="280.690604071189" stroke="none" width="6.736842105263122" x="144.00000000000003" y="169.309395928811" /><text fill="rgb(64,0,0)" style="font-size:16px; font-family:Arial" x="144.00000000000003" y="450.0">1.636</text><rect fill="rgb(0,128,255)" height="266.3209062197787" stroke="none" width="6.73684210526315" x="152.42105263157896" y="183.6790937802213" /><text fill="rgb(64,0,0)" style="font-size:16px; font-family:Arial" x="152.42105263157896" y="450.0">1.552</text><rect fill="rgb(0,128,255)" height="261.1999004831257" stroke="none" width="6.73684210526315" x="160.8421052631579" y="188.8000995168743" /><text fill="rgb(64,0,0)" style="font-size:16px; font-family:Arial" x="160.8421052631579" y="450.0">1.522</text><rect fill="rgb(0,128,255)" height="268.87349135059696" stroke="none" width="6.736842105263122" x="169.26315789473685" y="181.12650864940304" /><text fill="rgb(64,0,0)" style="font-size:16px; font-family:Arial" x="169.26315789473685" y="450.0">1.567</text><rect fill="rgb(0,128,255)" height="253.0852860879326" stroke="none" width="6.736842105263122" x="177.6842105263158" y="196.9147139120674" /><text fill="rgb(64,0,0)" style="font-size:16px; font-family:Arial" x="177.6842105263158" y="450.0">1.475</text><rect fill="rgb(0,128,255)" height="251.82581109755904" stroke="none" width="6.73684210526315" x="186.10526315789474" y="198.17418890244096" /><text fill="rgb(64,0,0)" style="font-size:16px; font-family:Arial" x="186.10526315789474" y="450.0">1.467</text><rect fill="rgb(0,128,255)" height="245.27313458123848" stroke="none" width="6.736842105263122" x="194.5263157894737" y="204.72686541876152" /><text fill="rgb(64,0,0)" style="font-size:16px; font-family:Arial" x="194.5263157894737" y="450.0">1.429</text><rect fill="rgb(0,128,255)" height="229.41595528751765" stroke="none" width="6.73684210526315" x="202.94736842105263" y="220.58404471248235" /><text fill="rgb(64,0,0)" style="font-size:16px; font-family:Arial" x="202.94736842105263" y="450.0">1.337</text><rect fill="rgb(0,128,255)" height="251.98285590119806" stroke="none" width="6.736842105263094" x="211.36842105263162" y="198.01714409880194" /><text fill="rgb(64,0,0)" style="font-size:16px; font-family:Arial" x="211.36842105263162" y="450.0">1.468</text><rect fill="rgb(0,128,255)" height="239.36773822170306" stroke="none" width="6.736842105263179" x="219.78947368421052" y="210.63226177829694" /><text fill="rgb(64,0,0)" style="font-size:16px; font-family:Arial" x="219.78947368421052" y="450.0">1.395</text><rect fill="rgb(0,128,255)" height="218.11424478191708" stroke="none" width="6.73684210526315" x="228.21052631578945" y="231.88575521808292" /><text fill="rgb(64,0,0)" style="font-size:16px; font-family:Arial" x="228.21052631578945" y="450.0">1.271</text><rect fill="rgb(0,128,255)" height="211.53270701773403" stroke="none" width="6.736842105263094" x="236.63157894736844" y="238.46729298226597" /><text fill="rgb(64,0,0)" style="font-size:16px; font-family:Arial" x="236.63157894736844" y="450.0">1.233</text><rect fill="rgb(0,128,255)" height="212.32191064282927" stroke="none" width="6.73684210526315" x="245.05263157894737" y="237.67808935717073" /><text fill="rgb(64,0,0)" style="font-size:16px; font-family:Arial" x="245.05263157894737" y="450.0">1.237</text><rect fill="rgb(0,128,255)" height="201.12148381745675" stroke="none" width="6.736842105263094" x="253.47368421052633" y="248.87851618254325" /><text fill="rgb(64,0,0)" style="font-size:16px; font-family:Arial" x="253.47368421052633" y="450.0">1.172</text><rect fill="rgb(0,128,255)" height="202.3031913560648" stroke="none" width="6.736842105263179" x="261.89473684210526" y="247.6968086439352" /><text fill="rgb(64,0,0)" style="font-size:16px; font-family:Arial" x="261.89473684210526" y="450.0">1.179</text><rect fill="rgb(0,128,255)" height="201.19089626558497" stroke="none" width="6.736842105263122" x="270.3157894736842" y="248.80910373441503" /><text fill="rgb(64,0,0)" style="font-size:16px; font-family:Arial" x="270.3157894736842" y="450.0">1.172</text><rect fill="rgb(0,128,255)" height="194.9175048523552" stroke="none" width="6.736842105263122" x="278.7368421052632" y="255.0824951476448" /><text fill="rgb(64,0,0)" style="font-size:16px; font-family:Arial" x="278.7368421052632" y="450.0">1.136</text><rect fill="rgb(0,128,255)" height="1.7053025658242404e-13" stroke="none" width="6.736842105263179" x="287.1578947368421" y="449.99999999999983" /><text fill="rgb(64,0,0)" style="font-size:16px; font-family:Arial" x="287.1578947368421" y="450.0">0.000</text><rect fill="rgb(0,128,255)" height="1.1368683772161603e-13" stroke="none" width="6.736842105263065" x="295.5789473684211" y="449.9999999999999" /><text fill="rgb(64,0,0)" style="font-size:16px; font-family:Arial" x="295.5789473684211" y="450.0">0.000</text><rect fill="rgb(0,128,255)" height="1.1368683772161603e-13" stroke="none" width="6.736842105263179" x="304.0" y="449.9999999999999" /><text fill="rgb(64,0,0)" style="font-size:16px; font-family:Arial" x="304.0" y="450.0">0.000</text><rect fill="rgb(0,128,255)" height="1.1368683772161603e-13" stroke="none" width="6.736842105263122" x="312.42105263157896" y="449.9999999999999" /><text fill="rgb(64,0,0)" style="font-size:16px; font-family:Arial" x="312.42105263157896" y="450.0">0.000</text><rect fill="rgb(0,128,255)" height="1.1368683772161603e-13" stroke="none" width="6.736842105263122" x="320.8421052631579" y="449.9999999999999" /><text fill="rgb(64,0,0)" style="font-size:16px; font-family:Arial" x="320.8421052631579" y="450.0">0.000</text><rect fill="rgb(0,128,255)" height="1.1368683772161603e-13" stroke="none" width="6.736842105263179" x="329.2631578947368" y="449.9999999999999" /><text fill="rgb(64,0,0)" style="font-size:16px; font-family:Arial" x="329.2631578947368" y="450.0">0.000</text><rect fill="rgb(0,128,255)" height="1.1368683772161603e-13" stroke="none" width="6.736842105263065" x="337.68421052631584" y="449.9999999999999" /><text fill="rgb(64,0,0)" style="font-size:16px; font-family:Arial" x="337.68421052631584" y="450.0">0.000</text><rect fill="rgb(0,128,255)" height="1.1368683772161603e-13" stroke="none" width="6.736842105263179" x="346.10526315789474" y="449.9999999999999" /><text fill="rgb(64,0,0)" style="font-size:16px; font-family:Arial" x="346.10526315789474" y="450.0">0.000</text><rect fill="rgb(0,128,255)" height="1.1368683772161603e-13" stroke="none" width="6.736842105263122" x="354.5263157894737" y="449.9999999999999" /><text fill="rgb(64,0,0)" style="font-size:16px; font-family:Arial" x="354.5263157894737" y="450.0">0.000</text><rect fill="rgb(0,128,255)" height="1.1368683772161603e-13" stroke="none" width="6.736842105263122" x="362.94736842105266" y="449.9999999999999" /><text fill="rgb(64,0,0)" style="font-size:16px; font-family:Arial" x="362.94736842105266" y="450.0">0.000</text><rect fill="rgb(0,128,255)" height="1.1368683772161603e-13" stroke="none" width="6.736842105263179" x="371.36842105263156" y="449.9999999999999" /><text fill="rgb(64,0,0)" style="font-size:16px; font-family:Arial" x="371.36842105263156" y="450.0">0.000</text><rect fill="rgb(0,128,255)" height="1.1368683772161603e-13" stroke="none" width="6.736842105263122" x="379.7894736842105" y="449.9999999999999" /><text fill="rgb(64,0,0)" style="font-size:16px; font-family:Arial" x="379.7894736842105" y="450.0">0.000</text><rect fill="rgb(0,128,255)" height="5.684341886080802e-14" stroke="none" width="6.736842105263122" x="388.2105263157895" y="449.99999999999994" /><text fill="rgb(64,0,0)" style="font-size:16px; font-family:Arial" x="388.2105263157895" y="450.0">0.000</text><rect fill="rgb(0,128,255)" height="5.684341886080802e-14" stroke="none" width="6.736842105263122" x="396.63157894736844" y="449.99999999999994" /><text fill="rgb(64,0,0)" style="font-size:16px; font-family:Arial" x="396.63157894736844" y="450.0">0.000</text><rect fill="rgb(0,128,255)" height="5.684341886080802e-14" stroke="none" width="6.736842105263122" x="405.0526315789474" y="449.99999999999994" /><text fill="rgb(64,0,0)" style="font-size:16px; font-family:Arial" x="405.0526315789474" y="450.0">0.000</text><rect fill="rgb(0,128,255)" height="5.684341886080802e-14" stroke="none" width="6.736842105263179" x="413.4736842105263" y="449.99999999999994" /><text fill="rgb(64,0,0)" style="font-size:16px; font-family:Arial" x="413.4736842105263" y="450.0">0.000</text><rect fill="rgb(0,128,255)" height="5.684341886080802e-14" stroke="none" width="6.736842105263122" x="421.89473684210526" y="449.99999999999994" /><text fill="rgb(64,0,0)" style="font-size:16px; font-family:Arial" x="421.89473684210526" y="450.0">0.000</text><rect fill="rgb(0,128,255)" height="5.684341886080802e-14" stroke="none" width="6.736842105263065" x="430.3157894736843" y="449.99999999999994" /><text fill="rgb(64,0,0)" style="font-size:16px; font-family:Arial" x="430.3157894736843" y="450.0">0.000</text><rect fill="rgb(0,128,255)" height="5.684341886080802e-14" stroke="none" width="6.736842105263236" x="438.7368421052631" y="449.99999999999994" /><text fill="rgb(64,0,0)" style="font-size:16px; font-family:Arial" x="438.7368421052631" y="450.0">0.000</text><rect fill="rgb(0,128,255)" height="5.684341886080802e-14" stroke="none" width="6.736842105263122" x="447.1578947368421" y="449.99999999999994" /><text fill="rgb(64,0,0)" style="font-size:16px; font-family:Arial" x="447.1578947368421" y="450.0">0.000</text><rect fill="rgb(0,128,255)" height="5.684341886080802e-14" stroke="none" width="6.736842105263065" x="455.5789473684211" y="449.99999999999994" /><text fill="rgb(64,0,0)" style="font-size:16px; font-family:Arial" x="455.5789473684211" y="450.0">0.000</text><rect fill="rgb(0,128,255)" height="5.684341886080802e-14" stroke="none" width="6.736842105263236" x="463.99999999999994" y="449.99999999999994" /><text fill="rgb(64,0,0)" style="font-size:16px; font-family:Arial" x="463.99999999999994" y="450.0">0.000</text><rect fill="rgb(0,128,255)" height="5.684341886080802e-14" stroke="none" width="6.736842105263065" x="472.42105263157896" y="449.99999999999994" /><text fill="rgb(64,0,0)" style="font-size:16px; font-family:Arial" x="472.42105263157896" y="450.0">0.000</text><rect fill="rgb(0,128,255)" height="5.684341886080802e-14" stroke="none" width="6.736842105263122" x="480.8421052631579" y="449.99999999999994" /><text fill="rgb(64,0,0)" style="font-size:16px; font-family:Arial" x="480.8421052631579" y="450.0">0.000</text><rect fill="rgb(0,128,255)" height="5.684341886080802e-14" stroke="none" width="6.736842105263122" x="489.2631578947369" y="449.99999999999994" /><text fill="rgb(64,0,0)" style="font-size:16px; font-family:Arial" x="489.2631578947369" y="450.0">0.000</text><rect fill="rgb(0,128,255)" height="5.684341886080802e-14" stroke="none" width="6.736842105263179" x="497.6842105263158" y="449.99999999999994" /><text fill="rgb(64,0,0)" style="font-size:16px; font-family:Arial" x="497.6842105263158" y="450.0">0.000</text><rect fill="rgb(0,128,255)" height="5.684341886080802e-14" stroke="none" width="6.736842105263065" x="506.10526315789474" y="449.99999999999994" /><text fill="rgb(64,0,0)" style="font-size:16px; font-family:Arial" x="506.10526315789474" y="450.0">0.000</text><rect fill="rgb(0,128,255)" height="5.684341886080802e-14" stroke="none" width="6.736842105263122" x="514.5263157894738" y="449.99999999999994" /><text fill="rgb(64,0,0)" style="font-size:16px; font-family:Arial" x="514.5263157894738" y="450.0">0.000</text><rect fill="rgb(0,128,255)" height="5.684341886080802e-14" stroke="none" width="6.736842105263236" x="522.9473684210526" y="449.99999999999994" /><text fill="rgb(64,0,0)" style="font-size:16px; font-family:Arial" x="522.9473684210526" y="450.0">0.000</text><rect fill="rgb(0,128,255)" height="5.684341886080802e-14" stroke="none" width="6.736842105263122" x="531.3684210526316" y="449.99999999999994" /><text fill="rgb(64,0,0)" style="font-size:16px; font-family:Arial" x="531.3684210526316" y="450.0">0.000</text><rect fill="rgb(0,128,255)" height="5.684341886080802e-14" stroke="none" width="6.736842105263349" x="539.7894736842104" y="449.99999999999994" /><text fill="rgb(64,0,0)" style="font-size:16px; font-family:Arial" x="539.7894736842104" y="450.0">0.000</text><rect fill="rgb(0,128,255)" height="0.0" stroke="none" width="6.736842105263236" x="548.2105263157895" y="450.0" /><text fill="rgb(64,0,0)" style="font-size:16px; font-family:Arial" x="548.2105263157895" y="450.0">0.000</text><rect fill="rgb(0,128,255)" height="0.0" stroke="none" width="6.736842105263122" x="556.6315789473684" y="450.0" /><text fill="rgb(64,0,0)" style="font-size:16px; font-family:Arial" x="556.6315789473684" y="450.0">0.000</text><rect fill="rgb(0,128,255)" height="0.0" stroke="none" width="6.736842105263349" x="565.0526315789473" y="450.0" /><text fill="rgb(64,0,0)" style="font-size:16px; font-family:Arial" x="565.0526315789473" y="450.0">0.000</text><rect fill="rgb(0,128,255)" height="0.0" stroke="none" width="6.736842105263349" x="573.4736842105262" y="450.0" /><text fill="rgb(64,0,0)" style="font-size:16px; font-family:Arial" x="573.4736842105262" y="450.0">0.000</text><rect fill="rgb(0,128,255)" height="0.0" stroke="none" width="6.736842105263236" x="581.8947368421052" y="450.0" /><text fill="rgb(64,0,0)" style="font-size:16px; font-family:Arial" x="581.8947368421052" y="450.0">0.000</text><rect fill="rgb(0,128,255)" height="0.0" stroke="none" width="6.736842105263236" x="590.3157894736842" y="450.0" /><text fill="rgb(64,0,0)" style="font-size:16px; font-family:Arial" x="590.3157894736842" y="450.0">0.000</text><rect fill="rgb(0,128,255)" height="0.0" stroke="none" width="6.736842105263236" x="598.7368421052631" y="450.0" /><text fill="rgb(64,0,0)" style="font-size:16px; font-family:Arial" x="598.7368421052631" y="450.0">0.000</text><rect fill="rgb(0,128,255)" height="0.0" stroke="none" width="6.736842105263236" x="607.1578947368421" y="450.0" /><text fill="rgb(64,0,0)" style="font-size:16px; font-family:Arial" x="607.1578947368421" y="450.0">0.000</text><rect fill="rgb(0,128,255)" height="0.0" stroke="none" width="6.736842105263236" x="615.578947368421" y="450.0" /><text fill="rgb(64,0,0)" style="font-size:16px; font-family:Arial" x="615.578947368421" y="450.0">0.000</text><rect fill="rgb(0,128,255)" height="0.0" stroke="none" width="6.736842105263349" x="623.9999999999999" y="450.0" /><text fill="rgb(64,0,0)" style="font-size:16px; font-family:Arial" x="623.9999999999999" y="450.0">0.000</text><rect fill="rgb(0,128,255)" height="0.0" stroke="none" width="6.736842105263236" x="632.421052631579" y="450.0" /><text fill="rgb(64,0,0)" style="font-size:16px; font-family:Arial" x="632.421052631579" y="450.0">0.000</text><rect fill="rgb(0,128,255)" height="0.0" stroke="none" width="6.736842105263122" x="640.8421052631579" y="450.0" /><text fill="rgb(64,0,0)" style="font-size:16px; font-family:Arial" x="640.8421052631579" y="450.0">0.000</text><rect fill="rgb(0,128,255)" height="0.0" stroke="none" width="6.736842105263236" x="649.2631578947368" y="450.0" /><text fill="rgb(64,0,0)" style="font-size:16px; font-family:Arial" x="649.2631578947368" y="450.0">0.000</text><rect fill="rgb(0,128,255)" height="0.0" stroke="none" width="6.736842105263349" x="657.6842105263157" y="450.0" /><text fill="rgb(64,0,0)" style="font-size:16px; font-family:Arial" x="657.6842105263157" y="450.0">0.000</text><rect fill="rgb(0,128,255)" height="0.0" stroke="none" width="6.736842105263236" x="666.1052631578947" y="450.0" /><text fill="rgb(64,0,0)" style="font-size:16px; font-family:Arial" x="666.1052631578947" y="450.0">0.000</text><rect fill="rgb(0,128,255)" height="0.0" stroke="none" width="6.736842105263236" x="674.5263157894736" y="450.0" /><text fill="rgb(64,0,0)" style="font-size:16px; font-family:Arial" x="674.5263157894736" y="450.0">0.000</text><rect fill="rgb(0,128,255)" height="0.0" stroke="none" width="6.736842105263236" x="682.9473684210526" y="450.0" /><text fill="rgb(64,0,0)" style="font-size:16px; font-family:Arial" x="682.9473684210526" y="450.0">0.000</text><rect fill="rgb(0,128,255)" height="0.0" stroke="none" width="6.736842105263236" x="691.3684210526316" y="450.0" /><text fill="rgb(64,0,0)" style="font-size:16px; font-family:Arial" x="691.3684210526316" y="450.0">0.000</text><rect fill="rgb(0,128,255)" height="0.0" stroke="none" width="6.736842105263236" x="699.7894736842105" y="450.0" /><text fill="rgb(64,0,0)" style="font-size:16px; font-family:Arial" x="699.7894736842105" y="450.0">0.000</text><rect fill="rgb(0,128,255)" height="0.0" stroke="none" width="6.736842105263349" x="708.2105263157894" y="450.0" /><text fill="rgb(64,0,0)" style="font-size:16px; font-family:Arial" x="708.2105263157894" y="450.0">0.000</text><rect fill="rgb(0,128,255)" height="0.0" stroke="none" width="6.736842105263349" x="716.6315789473683" y="450.0" /><text fill="rgb(64,0,0)" style="font-size:16px; font-family:Arial" x="716.6315789473683" y="450.0">0.000</text><rect fill="rgb(0,128,255)" height="0.0" stroke="none" width="6.736842105263122" x="725.0526315789474" y="450.0" /><text fill="rgb(64,0,0)" style="font-size:16px; font-family:Arial" x="725.0526315789474" y="450.0">0.000</text><rect fill="rgb(0,128,255)" height="0.0" stroke="none" width="6.736842105263236" x="733.4736842105262" y="450.0" /><text fill="rgb(64,0,0)" style="font-size:16px; font-family:Arial" x="733.4736842105262" y="450.0">0.000</text><rect fill="rgb(0,128,255)" height="0.0" stroke="none" width="6.736842105263236" x="741.8947368421052" y="450.0" /><text fill="rgb(64,0,0)" style="font-size:16px; font-family:Arial" x="741.8947368421052" y="450.0">0.000</text><rect fill="rgb(0,128,255)" height="0.0" stroke="none" width="6.736842105263236" x="750.3157894736842" y="450.0" /><text fill="rgb(64,0,0)" style="font-size:16px; font-family:Arial" x="750.3157894736842" y="450.0">0.000</text><rect fill="rgb(0,128,255)" height="0.0" stroke="none" width="6.736842105263236" x="758.7368421052631" y="450.0" /><text fill="rgb(64,0,0)" style="font-size:16px; font-family:Arial" x="758.7368421052631" y="450.0">0.000</text><rect fill="rgb(0,128,255)" height="0.0" stroke="none" width="6.736842105263236" x="767.1578947368421" y="450.0" /><text fill="rgb(64,0,0)" style="font-size:16px; font-family:Arial" x="767.1578947368421" y="450.0">0.000</text><rect fill="rgb(0,128,255)" height="0.0" stroke="none" width="6.736842105263236" x="775.578947368421" y="450.0" /><text fill="rgb(64,0,0)" style="font-size:16px; font-family:Arial" x="775.578947368421" y="450.0">0.000</text><rect fill="rgb(0,128,255)" height="0.0" stroke="none" width="6.736842105263236" x="784.0" y="450.0" /><text fill="rgb(64,0,0)" style="font-size:16px; font-family:Arial" x="784.0" y="450.0">0.000</text></svg>
